<svg xmlns="http://www.w3.org/2000/svg" viewBox="0 0 400 480" width="400" height="480">
  <defs>
    <linearGradient id="bldGold" x1="0%" y1="0%" x2="100%" y2="0%">
      <stop offset="0%"   stop-color="#7A6028"/>
      <stop offset="35%"  stop-color="#C8AA60"/>
      <stop offset="65%"  stop-color="#C8AA60"/>
      <stop offset="100%" stop-color="#8A7030"/>
    </linearGradient>
    <linearGradient id="lineGold" x1="0%" y1="0%" x2="100%" y2="0%">
      <stop offset="0%"   stop-color="#C4A858" stop-opacity="0"/>
      <stop offset="20%"  stop-color="#C4A858" stop-opacity="1"/>
      <stop offset="80%"  stop-color="#C4A858" stop-opacity="1"/>
      <stop offset="100%" stop-color="#C4A858" stop-opacity="0"/>
    </linearGradient>
  </defs>

  <!-- ===== LEFT BUILDING (x=82, y=100, w=70, h=100) ===== -->
  <rect x="82" y="100" width="70" height="100" fill="url(#bldGold)"/>
  <!-- windows: 3 cols x 7 rows -->
  <rect x="92"  y="109" width="14" height="9" fill="rgba(255,255,255,0.28)" rx="1"/>
  <rect x="110" y="109" width="14" height="9" fill="rgba(255,255,255,0.28)" rx="1"/>
  <rect x="128" y="109" width="14" height="9" fill="rgba(255,255,255,0.28)" rx="1"/>
  <rect x="92"  y="121" width="14" height="9" fill="rgba(255,255,255,0.28)" rx="1"/>
  <rect x="110" y="121" width="14" height="9" fill="rgba(255,255,255,0.28)" rx="1"/>
  <rect x="128" y="121" width="14" height="9" fill="rgba(255,255,255,0.28)" rx="1"/>
  <rect x="92"  y="133" width="14" height="9" fill="rgba(255,255,255,0.28)" rx="1"/>
  <rect x="110" y="133" width="14" height="9" fill="rgba(255,255,255,0.28)" rx="1"/>
  <rect x="128" y="133" width="14" height="9" fill="rgba(255,255,255,0.28)" rx="1"/>
  <rect x="92"  y="145" width="14" height="9" fill="rgba(255,255,255,0.28)" rx="1"/>
  <rect x="110" y="145" width="14" height="9" fill="rgba(255,255,255,0.28)" rx="1"/>
  <rect x="128" y="145" width="14" height="9" fill="rgba(255,255,255,0.28)" rx="1"/>
  <rect x="92"  y="157" width="14" height="9" fill="rgba(255,255,255,0.28)" rx="1"/>
  <rect x="110" y="157" width="14" height="9" fill="rgba(255,255,255,0.28)" rx="1"/>
  <rect x="128" y="157" width="14" height="9" fill="rgba(255,255,255,0.28)" rx="1"/>
  <rect x="92"  y="169" width="14" height="9" fill="rgba(255,255,255,0.28)" rx="1"/>
  <rect x="110" y="169" width="14" height="9" fill="rgba(255,255,255,0.28)" rx="1"/>
  <rect x="128" y="169" width="14" height="9" fill="rgba(255,255,255,0.28)" rx="1"/>
  <rect x="92"  y="181" width="14" height="9" fill="rgba(255,255,255,0.28)" rx="1"/>
  <rect x="110" y="181" width="14" height="9" fill="rgba(255,255,255,0.28)" rx="1"/>
  <rect x="128" y="181" width="14" height="9" fill="rgba(255,255,255,0.28)" rx="1"/>

  <!-- ===== MIDDLE BUILDING — tallest (x=162, y=65, w=86, h=135) ===== -->
  <!-- Triangular pediment -->
  <polygon points="205,30 162,65 248,65" fill="url(#bldGold)"/>
  <!-- Body -->
  <rect x="162" y="65" width="86" height="135" fill="url(#bldGold)"/>
  <!-- Door (entrance) -->
  <rect x="193" y="170" width="32" height="30" fill="#5A4418"/>
  <!-- Triangle window -->
  <rect x="197" y="40" width="16" height="10" fill="rgba(255,255,255,0.28)" rx="1"/>
  <!-- windows: 3 cols x 8 rows -->
  <rect x="174" y="76" width="18" height="8" fill="rgba(255,255,255,0.28)" rx="1"/>
  <rect x="196" y="76" width="18" height="8" fill="rgba(255,255,255,0.28)" rx="1"/>
  <rect x="218" y="76" width="18" height="8" fill="rgba(255,255,255,0.28)" rx="1"/>
  <rect x="174" y="87" width="18" height="8" fill="rgba(255,255,255,0.28)" rx="1"/>
  <rect x="196" y="87" width="18" height="8" fill="rgba(255,255,255,0.28)" rx="1"/>
  <rect x="218" y="87" width="18" height="8" fill="rgba(255,255,255,0.28)" rx="1"/>
  <rect x="174" y="98" width="18" height="8" fill="rgba(255,255,255,0.28)" rx="1"/>
  <rect x="196" y="98" width="18" height="8" fill="rgba(255,255,255,0.28)" rx="1"/>
  <rect x="218" y="98" width="18" height="8" fill="rgba(255,255,255,0.28)" rx="1"/>
  <rect x="174" y="109" width="18" height="8" fill="rgba(255,255,255,0.28)" rx="1"/>
  <rect x="196" y="109" width="18" height="8" fill="rgba(255,255,255,0.28)" rx="1"/>
  <rect x="218" y="109" width="18" height="8" fill="rgba(255,255,255,0.28)" rx="1"/>
  <rect x="174" y="120" width="18" height="8" fill="rgba(255,255,255,0.28)" rx="1"/>
  <rect x="196" y="120" width="18" height="8" fill="rgba(255,255,255,0.28)" rx="1"/>
  <rect x="218" y="120" width="18" height="8" fill="rgba(255,255,255,0.28)" rx="1"/>
  <rect x="174" y="131" width="18" height="8" fill="rgba(255,255,255,0.28)" rx="1"/>
  <rect x="196" y="131" width="18" height="8" fill="rgba(255,255,255,0.28)" rx="1"/>
  <rect x="218" y="131" width="18" height="8" fill="rgba(255,255,255,0.28)" rx="1"/>
  <rect x="174" y="142" width="18" height="8" fill="rgba(255,255,255,0.28)" rx="1"/>
  <rect x="196" y="142" width="18" height="8" fill="rgba(255,255,255,0.28)" rx="1"/>
  <rect x="218" y="142" width="18" height="8" fill="rgba(255,255,255,0.28)" rx="1"/>
  <rect x="174" y="153" width="18" height="8" fill="rgba(255,255,255,0.28)" rx="1"/>
  <rect x="196" y="153" width="18" height="8" fill="rgba(255,255,255,0.28)" rx="1"/>
  <rect x="218" y="153" width="18" height="8" fill="rgba(255,255,255,0.28)" rx="1"/>

  <!-- ===== RIGHT BUILDING (x=258, y=120, w=66, h=80) ===== -->
  <rect x="258" y="120" width="66" height="80" fill="url(#bldGold)"/>
  <!-- windows: 2 cols x 5 rows -->
  <rect x="268" y="129" width="20" height="10" fill="rgba(255,255,255,0.28)" rx="1"/>
  <rect x="293" y="129" width="20" height="10" fill="rgba(255,255,255,0.28)" rx="1"/>
  <rect x="268" y="142" width="20" height="10" fill="rgba(255,255,255,0.28)" rx="1"/>
  <rect x="293" y="142" width="20" height="10" fill="rgba(255,255,255,0.28)" rx="1"/>
  <rect x="268" y="155" width="20" height="10" fill="rgba(255,255,255,0.28)" rx="1"/>
  <rect x="293" y="155" width="20" height="10" fill="rgba(255,255,255,0.28)" rx="1"/>
  <rect x="268" y="168" width="20" height="10" fill="rgba(255,255,255,0.28)" rx="1"/>
  <rect x="293" y="168" width="20" height="10" fill="rgba(255,255,255,0.28)" rx="1"/>
  <rect x="268" y="181" width="20" height="10" fill="rgba(255,255,255,0.28)" rx="1"/>
  <rect x="293" y="181" width="20" height="10" fill="rgba(255,255,255,0.28)" rx="1"/>

  <!-- ===== HORIZONTAL DIVIDER LINE ===== -->
  <line x1="50" y1="200" x2="350" y2="200" stroke="url(#lineGold)" stroke-width="2.5"/>

  <!-- ===== CRC (large serif) ===== -->
  <text
    x="200" y="330"
    font-family="Georgia, 'Times New Roman', serif"
    font-size="118"
    font-weight="bold"
    fill="#FFFFFF"
    text-anchor="middle"
    letter-spacing="14"
  >CRC</text>

  <!-- ===== ABOGADOS ASOCIADOS ===== -->
  <text
    x="200" y="372"
    font-family="Georgia, 'Times New Roman', serif"
    font-size="21"
    fill="#FFFFFF"
    text-anchor="middle"
    letter-spacing="5"
  >ABOGADOS ASOCIADOS</text>
</svg>
